# xmcd
#
# Track frame offsets: 
#        150
#        16040
#        33853
#        52450
#        70857
#        86016
#        101028
#        116696
#        132848
#        150912
#        168166
#        184482
#        200086
#        216239
#
# Disc length: 3148 seconds
#
# Revision: 2
# Processed by: cddbd v1.5.2PL0 Copyright (c) Steve Scherf et al.
# Submitted via: ExactAudioCopy v0.99pb4
#
DISCID=c30c4a0e
DTITLE=Виктор Королёв - Лимончики
DYEAR=2006
DGENRE=Шансон
TTITLE0=Свадьба
TTITLE1=За окном сирень
TTITLE2=Я любил тебя...
TTITLE3=Подарю тебе розы
TTITLE4=Лимончики
TTITLE5=Красивые слова
TTITLE6=Три часа
TTITLE7=Тётя доктор (дуэт с группой 'Стоматолог и Фисун')
TTITLE8=Крылья
TTITLE9=Кепочка
TTITLE10=С Новым Годом!
TTITLE11=Твои глаза
TTITLE12=Такси
TTITLE13=Белые лебеди
EXTD=
EXTT0=
EXTT1=
EXTT2=
EXTT3=
EXTT4=
EXTT5=
EXTT6=
EXTT7=
EXTT8=
EXTT9=
EXTT10=
EXTT11=
EXTT12=
EXTT13=
PLAYORDER=
